<svg width="2048" height="2048" viewBox="0 0 2048 2048" fill="none" xmlns="http://www.w3.org/2000/svg">
<path fill-rule="evenodd" clip-rule="evenodd" d="M1519 535.975V990.32C1519 1273.29 1263.52 1540.32 1024 1620.02C784.484 1540.32 529 1273.29 529 990.32V535.975H1519ZM1023.99 1132.47L973.791 1045.53L909.681 1082.54L981.247 1206.5L909.687 1330.45L973.797 1367.47L1023.99 1280.53L1074.18 1367.48L1138.29 1330.46L1088.35 1243.96H1188.49V1169.04H1088.36L1138.3 1082.53L1074.19 1045.52L1023.99 1132.47ZM862.008 1168.13V1243.05H936.931V1168.13H862.008ZM812.273 765.871L762.077 678.924L697.967 715.94L769.533 839.901L697.973 963.854L762.083 1000.87L812.274 913.932L862.47 1000.88L926.58 963.86L876.639 877.356H976.776V802.433H876.646L926.585 715.934L862.475 678.918L812.273 765.871ZM1236.79 765.856L1186.59 678.914L1122.48 715.929L1194.05 839.887L1122.49 963.842L1186.6 1000.86L1236.79 913.917L1286.99 1000.86L1351.1 963.849L1301.16 877.346H1401.3V802.424H1301.16L1351.1 715.922L1286.99 678.907L1236.79 765.856ZM1074.81 802.432V877.355H1149.73L1149.73 802.432H1074.81ZM651.269 800.321V875.244H726.191V800.321H651.269Z" fill="white"/>
</svg>
