<svg width="1080" height="1350" viewBox="0 0 1080 1350" fill="none" xmlns="http://www.w3.org/2000/svg">
<path d="M406.5 1182C406.5 1165.21 403.005 703.155 408.987 469.496C408.994 469.216 409.227 469.011 409.507 469.023C410.837 469.085 414.726 469.262 420.52 469.513C420.787 469.524 420.985 469.743 420.924 470.003C420.168 473.229 414.139 488.273 421 489C423.956 489.313 424.705 495.071 425.5 499.5C425.984 502.197 429.754 502.222 432.5 501.5C437.417 500.208 444.785 484.148 449 476.5C450.348 474.054 453.145 475.332 454.932 476.457C454.977 476.486 455.028 476.507 455.08 476.52C460.553 477.842 462.937 473.672 463.418 471.684C463.479 471.429 463.702 471.235 463.964 471.244C492.425 472.28 526.722 473.32 553.5 473.5C624.361 473.976 690.247 470.38 696.514 470.028C696.803 470.012 696.998 470.23 696.995 470.519C694.828 704.223 688.426 1174.1 688.002 1189.91C688 1190.02 687.967 1190.04 687.896 1190.13C678.69 1201.1 638.2 1213.5 560 1214C485.001 1214.48 406.5 1203 406.5 1182Z" fill="white"/>
</svg>
